<?xml version="1.0" encoding="UTF-8" standalone="no"?>
<svg
   xmlns:dc="http://purl.org/dc/elements/1.1/"
   xmlns:cc="http://creativecommons.org/ns#"
   xmlns:rdf="http://www.w3.org/1999/02/22-rdf-syntax-ns#"
   xmlns:svg="http://www.w3.org/2000/svg"
   xmlns="http://www.w3.org/2000/svg"
   viewBox="0 0 1122.5197 793.70081"
   height="793.70081"
   width="1122.5197"
   xml:space="preserve"
   id="svg2"
   version="1.1"><metadata
     id="metadata8"><rdf:RDF><cc:Work
         rdf:about=""><dc:format>image/svg+xml</dc:format><dc:type
           rdf:resource="http://purl.org/dc/dcmitype/StillImage" /></cc:Work></rdf:RDF></metadata><defs
     id="defs6" /><g
     transform="matrix(1.3333333,0,0,-1.3333333,0,793.7008)"
     id="g10"><g
       id="g12"><g
         id="g14"><path
           id="path16"
           style="fill:#ffffff;fill-opacity:1;fill-rule:evenodd;stroke:none"
           d="m 189.7115,415.2348 c 65.0585,0 117.7991,-52.7406 117.7991,-117.7991 0,-65.0585 -52.7406,-117.7991 -117.7991,-117.7991 -65.0585,0 -117.7991,52.7406 -117.7991,117.7991 0,65.0585 52.7406,117.7991 117.7991,117.7991" /><path
           id="path18"
           style="fill:#3f4096;fill-opacity:1;fill-rule:evenodd;stroke:none"
           d="m 250.583,235.8757 -82.457,-22.2681 c -1.0687,0.2766 -2.1309,0.5731 -3.1859,0.8895 l -3.4716,2.715 c -8.276,6.2351 -3.5997,5.036 -11.6776,5.7254 -1.2257,0.1046 -2.3851,0.2166 -3.4982,0.3509 l -1.4857,0.1676 c -5.0519,3.0679 -9.7883,6.6537 -14.129,10.6988 2.7941,-0.7376 12.8883,-2.7658 15.0829,-2.7474 -0.4428,0.8799 -1.3456,1.5846 -1.967,2.3307 -0.6675,0.8013 -1.2824,1.3819 -2.0148,2.2521 -5.1931,6.169 -9.7807,12.219 -13.6965,19.3411 -0.8439,1.5347 -0.6545,1.0389 -3.9121,1.7881 -0.6658,0.153 -0.8937,0.2661 -1.5091,0.4362 -3.4816,0.9621 -6.4979,1.8167 -9.908,3.0716 -0.5612,0.2064 -1.1185,0.4448 -1.6639,0.6517 -0.1103,0.241 -0.2206,0.4819 -0.3291,0.7243 l 46.7892,21.7684 -46.7892,-21.7684 c -1.3587,3.0382 -2.5504,6.1838 -3.5688,9.4255 1.6619,-0.8317 4.2457,-1.7725 4.801,-1.9999 l 6.4627,-2.3695 c 0.8065,-0.2721 1.4655,-0.4561 2.3046,-0.7197 0.7818,-0.246 1.4349,-0.5519 2.2498,-0.5448 -0.318,0.959 -0.8314,2.1104 -1.2662,3.2139 l -3.1224,9.9567 c -0.4824,1.9942 -2.0806,10.6875 -1.8476,11.7808 -1.099,0.0261 -6.2504,2.4171 -7.5396,2.9852 l -6.0542,3.1484 c -0.0213,3.0002 0.1176,5.9788 0.4048,8.9277 0.0621,-0.0374 0.1278,-0.0765 0.1973,-0.1182 L 106.85,303.84 c 0.4586,-0.2268 0.5354,-0.2001 1.008,-0.4643 1.5596,-0.8725 7.1929,-3.9016 8.4152,-3.9305 -0.055,6.4859 0.9876,16.5835 2.5359,22.6635 -0.4723,0.4343 -0.8343,0.6098 -1.4111,0.8618 l -8.4575,5.4572 c 0.9956,2.5875 2.1141,5.1225 3.3492,7.5974 1.3444,-1.1503 2.213,-1.667 3.7335,-2.8794 0.7137,-0.5689 4.1048,-2.6566 4.8325,-2.9245 0.021,0.8912 1.3011,4.5329 1.6361,5.6191 l 6.1838,15.9171 c -0.4252,0.7818 -1.5928,1.3176 -2.2887,1.8034 l -1.4842,1.1798 c 1.7515,1.9845 3.596,3.8923 5.5293,5.7158 0.5442,-0.4737 1.2554,-0.8232 1.7994,-1.0233 0.6134,0.667 0.6335,0.9986 1.0287,1.7932 l 1.6971,3.2091 c 0.6412,0.5249 1.2926,1.0392 1.9508,1.5457 l 34.9631,-13.7976 -34.9631,13.7976 c 0.3512,0.2701 0.7036,0.5389 1.0587,0.8042 l 70.0387,15.2322 c 1.2104,-0.2624 2.4129,-0.5521 3.6077,-0.8654 l 3.7327,-2.7008 c 0.4263,-0.3379 1.4238,-1.1282 1.7985,-1.2844 0.4233,0.4603 1.0568,1.1404 1.4262,1.8411 2.5432,-0.9014 5.04,-1.9191 7.4814,-3.0501 -0.8047,-1.4695 -2.1951,-3.0963 -2.4723,-3.8494 l 8.5532,-7.6706 c 0.7727,-0.7254 1.3663,-1.3303 2.1135,-2.0902 0.7093,-0.7215 1.3584,-1.3457 1.9953,-2.02 0.6744,-0.7135 1.2498,-1.3717 1.9562,-2.0838 0.4292,-0.4328 1.6555,-1.7144 1.8933,-2.1866 0.3719,0.4042 0.4422,0.6392 0.8181,1.1146 0.3866,0.4884 0.3977,0.5201 0.7228,1.0114 1.0871,1.6435 2.7386,3.761 3.6408,5.5919 2.0523,-1.7147 4.0295,-3.5243 5.9205,-5.4286 -0.349,-0.5128 -0.6316,-1.1339 -0.9012,-1.5758 -1.2396,-2.0308 -3.4174,-5.2291 -4.9079,-6.8502 l 1.391,-1.9517 c 2.9551,-4.0172 6.747,-9.8575 8.9291,-14.1942 1.135,1.0035 5.7657,7.4081 7.1841,9.9037 1.594,-2.522 3.0623,-5.1429 4.4011,-7.8525 -0.4187,-0.6109 -0.7838,-1.2498 -1.2869,-1.8811 -2.611,-3.276 -3.4747,-4.7146 -6.5781,-8.0904 l 4.0045,-12.4497 c 0.6395,-4.239 1.8658,-8.898 1.8987,-12.7826 l 4.7639,4.8396 c 0.5487,0.5956 0.8696,0.9669 1.3864,1.5749 l 3.6366,4.4504 c 0.6128,-3.6952 0.9822,-7.3825 1.1143,-11.0435 -0.4281,-0.4558 -0.8513,-0.9697 -1.128,-1.2682 -1.9933,-2.1512 -4.2292,-4.1082 -6.3447,-6.1342 -3.1581,-3.024 -3.0048,-1.4899 -3.138,-4.8637 -0.2829,-7.1691 -1.3436,-14.652 -2.9449,-21.6068 l -2.2555,-8.6306 c 0.8577,0.2846 2.0143,1.1945 2.7652,1.7016 0.8234,0.5553 1.7662,1.2073 2.6013,1.8015 1.8187,1.294 2.9948,2.0471 3.8211,2.681 -2.2379,-5.3572 -5.0011,-10.4772 -8.2522,-15.2737 l -2.7377,-1.5933 c -0.6489,-0.3717 -1.3394,-0.7197 -2.0285,-1.1829 -0.8816,-0.5925 -0.765,-0.9003 -1.0953,-1.7524 -0.2151,-0.555 -1.8731,-4.0941 -2.7609,-6.2362 -0.7033,-0.7481 -1.4174,-1.4862 -2.1478,-2.2099 z m -82.457,-22.2681 82.457,22.2681 c -4.3288,-4.2888 -9.1336,-8.1408 -14.3561,-11.4673 1.8629,3.001 5.0462,8.7877 5.7373,10.2543 0.7645,1.6212 1.817,3.2891 2.4355,4.9697 -0.9039,-0.2185 -1.5737,-0.6293 -2.3482,-0.9875 l -6.9434,-2.8636 c 0.0107,-1.275 -2.0631,-10.537 -2.7981,-13.7262 -3.0827,-1.7399 -6.2972,-3.3021 -9.6319,-4.6701 l 1.8032,6.967 c 0.7183,2.245 1.1304,5.4187 1.8119,8.094 l -15.9137,-4.651 4.1536,-13.2849 c -1.4667,-0.4374 -2.952,-0.8405 -4.4572,-1.2047 -1.1013,-0.2662 -2.2025,-0.5032 -3.3038,-0.7251 l -2.0424,6.224 c -0.6091,2.4432 -1.5196,4.6522 -2.1146,7.1124 l -7.4696,-1.3952 c -0.9972,-0.1587 -2.4936,-0.2778 -3.5121,-0.4654 -1.2096,-0.2226 -2.4231,-0.4298 -3.4963,-0.4388 1.3558,-1.5333 7.8075,-9.7033 10.6209,-12.2709 -3.5425,-0.3762 -7.0699,-0.5315 -10.5656,-0.4717 -1.3635,1.7501 -4.3577,5.095 -5.3983,6.3691 l -1.8972,2.4452 c -2.4228,3.3738 -2.0279,2.9393 -3.5992,2.8296 l -8.6414,-0.4065 c 0.771,-0.8771 6.0469,-4.684 7.1751,-5.4332 0.4629,-0.3073 0.8368,-0.4626 1.2889,-0.7971 1.9916,-1.4737 3.8829,-2.3822 4.9833,-3.2063 L 184.8546,211 c -5.6976,0.32 -11.2977,1.2027 -16.7286,2.6076 z m 1.258,167.9173 c 1.6186,0.3914 3.2374,0.7296 4.8551,1.0256 0.0108,-0.222 0.0273,-0.4658 0.1177,-0.8935 0.1312,-0.6214 0.3515,-1.2782 0.4669,-1.8992 0.1567,-0.8439 0.0209,-0.8323 0.2143,-1.7448 0.1301,-0.6145 0.3568,-1.2744 0.4532,-1.891 l 2.8372,-14.9674 c 0.2872,-1.2538 0.3416,-2.3052 0.7209,-3.8297 0.3563,-1.4343 0.3177,-2.1532 0.6777,-3.6419 l 1.7042,0.4121 c 7.7077,1.8647 14.4272,5.6674 15.5931,5.9772 -0.4153,1.2515 -8.1938,10.654 -9.7809,12.5345 -3.445,4.0816 -6.5132,7.0756 -9.6086,10.4961 2.8973,0.4125 5.7872,0.675 8.6615,0.7917 l -38.0937,-30.8213 38.0937,30.8213 c 0.618,0.0253 1.2348,0.0423 1.851,0.0542 l 13.9669,-16.8608 c 0.4748,-0.6531 1.6574,-2.0222 1.8896,-2.7215 0.786,0.3954 1.614,1.0318 2.2328,1.5423 l 3.8413,3.1431 c 0.4388,0.4195 1.2696,1.3351 1.8187,1.6339 -0.9539,0.8767 -1.8224,1.3853 -2.8525,2.2016 l -5.927,4.0405 c -0.6588,0.4 -0.8541,0.6588 -1.453,1.0571 l -9.004,5.3456 c -0.3892,0.1921 -0.6956,0.4022 -1.0253,0.6151 5.5593,-0.118 11.0381,-0.7725 16.3706,-1.9282 l -70.0387,-15.2322 c 3.9867,2.9786 8.2605,5.6327 12.7922,7.9132 -0.269,-0.4003 -0.5584,-0.845 -0.8991,-1.3309 l -2.4395,-3.9988 c -0.6659,-1.0009 -1.0701,-1.2064 -1.7127,-2.6668 -0.4312,-0.98 -1.0137,-1.793 -1.5922,-2.7406 l -4.5414,-8.365 c 0.8433,-0.7753 7.5039,-2.6983 8.6286,-2.5231 -0.005,0.6043 0.1353,0.9995 0.2348,1.6321 0.0799,0.5063 0.1578,0.8779 0.2469,1.4633 l 4.5011,19.7011 c 3.0776,1.4295 6.2665,2.6909 9.5593,3.7678 -0.0295,-0.1077 -0.0598,-0.222 -0.0964,-0.3563 l -1.5327,-5.3598 c -0.2183,-0.7033 -0.3144,-1.1381 -0.4779,-1.8065 -0.7387,-3.0124 -1.645,-6.1019 -2.2026,-9.1471 -0.3517,-1.9219 -2.3621,-9.9819 -2.0681,-11.3276 0.7282,0.1134 1.1625,-0.0238 1.9023,-0.0564 0.7813,-0.0345 1.1464,-0.0595 1.8941,-0.0703 1.1889,-0.0167 2.363,0.002 3.7245,0.0199 1.4065,0.0181 2.5092,0.0822 3.9951,0.1987 1.1396,0.0893 2.954,0.2012 3.9881,0.4513 -0.5582,2.3079 -1.1713,5.3512 -1.4423,7.4982 -0.299,2.3706 -1.26,5.0196 -1.4984,7.3712 -0.225,2.217 -1.0896,4.9099 -1.3921,7.306 -0.2364,1.8737 -0.6896,4.2463 -1.1758,6.3711 0.9992,0.2804 2.0044,0.5488 3.0215,0.7949 z m 0.0277,-128.5603 91.0061,4.9754 z m 0,0 5.8009,0.5125 c 2.1461,0.2013 3.92,0.4507 6.0916,0.7246 l 9.3045,1.4921 c 1.1386,0.2653 1.8944,0.2506 3.2598,0.5808 l 2.2459,-8.484 c 0.2911,-1.1968 0.5865,-1.5242 0.8847,-2.7814 0.508,-2.1402 1.0343,-3.5056 1.5554,-5.6489 0.2911,-1.1971 0.587,-1.5239 0.8846,-2.7813 0.226,-0.9536 0.4099,-2.2329 0.8734,-2.8001 -4.0544,-0.9808 -9.2426,-1.7419 -13.3217,-2.2564 -1.5423,-0.1944 -2.9083,-0.2664 -4.4215,-0.6327 -0.2129,0.6421 -1.2209,1.9316 -1.6557,2.5762 -2.1073,3.1234 -10.6764,16.4556 -11.5019,19.4986 z m 60.1753,14.7566 c 0.1755,-0.803 0.0913,-2.0259 0.0749,-2.7895 l -1.7862,-22.9598 c -0.2262,-0.8311 -0.1133,-0.4723 -1.0326,-0.8224 l -8.8288,-3.0041 c -1.7776,-0.7248 -7.9503,-2.2082 -9.8918,-2.6779 l -2.4352,8.4385 c -0.2906,1.1962 -0.5862,1.5241 -0.8847,2.7813 -0.9312,3.9198 -2.2218,7.5461 -3.1697,11.4656 8.7755,2.1228 16.4571,4.8744 24.6172,8.2159 0.9921,0.4059 2.0511,1.0415 3.3369,1.3524 z m -91.3544,-13.4787 91.3544,13.4787 z m 0,0 c 0.8326,0.007 1.6892,-0.1466 2.5838,-0.2622 0.9663,-0.125 1.7294,-0.2461 2.6966,-0.3422 5.6866,-0.5649 11.111,-0.8903 16.9189,-0.8413 0.2857,-1.076 2.2039,-4.6154 2.8661,-5.8813 0.9896,-1.891 2.0976,-3.8197 3.1411,-5.6959 1.0403,-1.8706 2.2079,-3.7024 3.2958,-5.4414 0.561,-0.8966 1.1086,-1.7697 1.6339,-2.6119 l 1.6982,-2.7708 c -1.5491,-0.3385 -10.8538,-0.235 -12.3653,-0.1608 -2.6495,0.1299 -1.3484,-0.4597 -4.57,2.5614 -6.4953,6.0911 -12.0146,12.7985 -17.094,20.1209 -0.3056,0.4405 -0.5568,1.0038 -0.8051,1.3255 z m 98.2687,-9.3042 0.6378,6.3899 c 0.216,3.0438 1.1177,17.5739 0.5116,20.3482 1.7227,0.8668 3.5144,1.9395 5.1753,2.8131 4.3103,2.2674 13.5269,8.7029 14.3855,9.1349 -0.5173,-2.427 -0.661,-6.8099 -1.7904,-11.6586 -1.4652,-6.2909 -2.2008,-9.9674 -4.5218,-16.4474 -1.0482,-2.9262 -0.8779,-4.0179 -2.5812,-4.8807 l -8.7979,-4.3141 c -0.7379,-0.3294 -2.6014,-1.0443 -3.0189,-1.3853 z m -78.9517,38.8333 c 5.4567,0.0462 12.3792,0.3194 17.9527,1.1171 l 6.3782,0.9292 c 1.0613,0.1409 1.8797,0.3657 3.1158,0.6094 1.2036,0.2373 0.9737,0.0479 1.5245,-2.2623 0.5423,-2.2739 1.0993,-4.5456 1.6489,-6.8179 0.5933,-2.4525 1.2039,-4.1479 1.7927,-6.5823 0.5496,-2.2725 1.0995,-4.5448 1.6492,-6.8173 l -4.834,-0.7796 c -0.6434,-0.1034 -1.1806,-0.3112 -1.8465,-0.3809 -2.0559,-0.2149 -4.5802,-0.6271 -6.6736,-0.8842 -2.1968,-0.2698 -4.1745,-0.4787 -6.3589,-0.6335 -1.1668,-0.0831 -2.069,-0.1661 -3.1932,-0.2075 -0.7773,-0.0286 -2.3225,-0.0306 -3.2029,-0.2228 -0.2166,0.8155 -0.7427,1.8278 -1.1067,2.6821 l -3.1994,8.2443 c -1.3584,3.536 -2.6328,7.8143 -3.6468,12.0062 z m 71.9155,-7.2599 c -8.2539,-4.1533 -21.0699,-8.5045 -29.8998,-10.6404 l -1.518,5.4462 c -0.458,1.8936 -0.9249,3.7871 -1.3733,5.6827 -0.438,1.853 -1.02,3.3828 -1.5186,5.4445 -0.4734,1.957 -0.9467,3.9138 -1.4201,5.8705 10.7572,2.6022 15.9188,4.7645 25.317,8.7571 l 7.005,3.4716 c 0.991,-4.0967 1.743,-8.5488 2.2167,-12.329 0.2668,-2.1297 0.4856,-3.8251 0.6761,-5.9006 z m 28.1072,17.2228 c -0.7293,-0.2421 -1.6063,-1.1265 -2.3212,-1.6498 -2.7171,-1.9888 -14.9074,-10.6642 -17.9575,-11.4741 l -1.4117,11.5149 c -0.2503,1.9287 -0.9782,4.1429 -1.1426,6.0239 -0.178,2.037 -0.9219,4.2897 -1.4216,6.3559 0.6508,0.5315 1.7881,1.1577 2.5818,1.652 5.8014,3.6148 9.8232,6.8981 14.9542,11.2093 0.3761,0.3161 0.7001,0.5641 1.0879,0.9499 0.4808,0.478 0.5879,0.6877 1.2424,1.0171 0.4153,-1.5639 1.107,-2.9194 1.6155,-5.0216 2.0239,-8.3664 2.7008,-12.0741 2.7728,-20.5775 z m -132.5029,-5.7923 c 6.9775,-1.7771 10.5678,-2.3644 17.7953,-3.3716 l 6.4165,-0.5941 c 1.8357,-7.5886 3.5456,-13.2701 6.327,-20.3082 0.3208,-0.8125 0.8433,-1.8749 1.0578,-2.7618 -1.6656,-0.2591 -10.0581,0.4898 -11.707,0.6533 l -9.8289,1.3502 c -2.5347,0.4728 -1.8507,-0.1755 -3.0858,2.3482 -1.5415,3.1493 -3.9084,9.0516 -4.6902,12.4126 -0.3339,1.4363 -0.7588,2.0676 -1.0256,3.3614 z m 67.7344,8.3664 -0.9468,-0.229 c -0.3792,1.5684 -0.5184,2.9727 -0.9558,4.7803 -0.4124,1.7042 -0.8243,3.4087 -1.2368,5.1129 -0.4606,1.9032 -0.5714,3.2352 -1.0003,4.9688 -0.421,1.702 -0.826,3.4098 -1.2382,5.114 11.7661,2.846 18.7186,5.2954 28.7759,10.5562 0.8229,0.4303 0.6296,0.6234 1.5279,-1.3688 0.7367,-1.6336 1.5301,-3.5606 2.2297,-5.3379 1.353,-3.437 3.0385,-7.5422 3.9844,-11.4531 -1.4193,-1.1588 -12.6034,-5.9908 -14.4034,-6.7031 -5.0179,-1.9857 -10.8666,-4.0204 -16.7366,-5.4403 z m -8.7568,-1.9179 c -2.3816,-0.576 -5.0859,-1.0488 -7.3961,-1.2744 -6.2139,-0.6078 -11.1215,-1.3646 -17.5952,-1.3247 -0.8499,0.005 -2.5104,0.1347 -3.43,-0.0663 0.1109,0.521 -0.7129,4.4453 -0.8152,5.5015 -0.2838,2.9253 -1.7768,13.7667 -1.3374,15.8275 l 6.2082,-0.1423 c 5.1202,-0.0391 14.9839,0.4578 19.8884,1.6441 1.6432,-6.7927 2.8542,-13.4561 4.4773,-20.1654 z m 39.8336,36.6973 c 3.0061,1.5129 9.5916,6.9667 12.2165,9.1678 0.775,0.6497 3.1359,3.1054 3.8043,3.3271 l 2.6907,-3.7891 c 1.4879,-2.2158 6.7289,-10.5009 7.2964,-12.6377 -0.6058,-0.3047 -3.3812,-3.0609 -4.2792,-3.8441 -3.7945,-3.31 -7.598,-6.0911 -11.749,-8.9691 -0.8966,-0.6216 -1.9534,-1.1293 -2.7017,-1.7404 -1.7079,5.1471 -3.1853,9.2021 -5.2725,14.1029 -0.3773,0.8855 -1.5072,3.7723 -2.0055,4.3826 z m -76.3795,-38.9225 -5.91,0.6313 c -8.369,1.2223 -9.2015,1.5809 -17.166,3.6091 -0.0533,6.3334 0.4405,16.1589 2.0137,22.3367 0.7112,-0.0167 1.5333,-0.4502 2.1671,-0.6806 3.1405,-1.1429 13.5847,-4.0249 16.6051,-3.9994 l 0.7562,-10.6305 c 0.2591,-2.59 0.9287,-8.7659 1.5339,-11.2666 z m 38.2359,31.7001 -1.1026,5.3541 c -0.2512,1.097 -0.1389,1.4772 -0.4371,2.6881 -0.2336,0.9485 -0.4726,1.8992 -0.7008,2.8488 -0.2814,1.1713 -0.1542,1.5157 -0.4356,2.6873 -0.2254,0.9368 -0.506,1.9136 -0.703,2.8502 l -1.1313,5.533 c 9.0926,2.1994 13.0147,3.9806 20.5684,7.7819 1.87,-2.2904 10.9914,-17.4591 11.5234,-19.4632 l -6.1696,-3.013 c -6.9276,-3.234 -13.583,-5.3733 -21.4118,-7.2672 z m -7.8559,-1.4992 c -2.5775,-0.6236 -9.7486,-1.2521 -12.6145,-1.3623 l -8.8812,-0.006 c -0.7693,0.0371 -2.2374,0.2185 -3.0404,0.0431 l 1.5432,22.6239 8.9384,-0.165 c 2.0971,0.0269 7.5958,0.356 9.544,0.8271 0.8799,-3.638 1.423,-7.6198 2.2306,-10.885 l 1.1375,-5.5366 c 0.235,-0.9477 0.4624,-1.8976 0.6959,-2.8457 0.298,-1.2107 0.182,-1.6008 0.4465,-2.6938 z m 30.8934,35.5368 c 1.6378,1.3371 2.7161,1.9502 4.8963,3.7902 l 3.4296,3.0716 c 0.3759,0.3773 0.7194,0.798 1.1857,1.0517 l 8.4498,-7.5759 c 1.3646,-1.2645 2.6621,-2.6371 4.013,-4.0025 0.7793,-0.7875 3.5734,-3.6567 3.8594,-4.519 -5.1321,-4.5377 -6.1061,-5.8742 -12.2746,-10.101 -0.7234,-0.4955 -1.3895,-0.8773 -1.9899,-1.3677 -0.2126,0.8008 -0.8838,1.9298 -1.2847,2.6549 z m -63.5023,-35.8078 c -0.6939,0.1483 -1.4185,0.2288 -2.2059,0.3529 l -6.5245,1.4746 c -2.9081,0.6863 -6.7479,2.327 -8.1998,2.6969 1.7243,6.7719 3.2148,10.2339 5.5114,16.3275 l 2.3085,5.2087 5.224,-1.7546 c 1.8578,-0.5843 3.6431,-0.9553 5.5732,-1.4468 z" /><path
           id="path20"
           style="fill:#3f4096;fill-opacity:1;fill-rule:evenodd;stroke:none"
           d="m 189.7115,410.4323 c 62.4064,0 112.9966,-50.5902 112.9966,-112.9966 0,-62.4064 -50.5902,-112.9966 -112.9966,-112.9966 -62.4064,0 -112.9966,50.5902 -112.9966,112.9966 0,62.4064 50.5902,112.9966 112.9966,112.9966 z m 0,-3.3743 c 60.5426,0 109.6223,-49.0797 109.6223,-109.6223 0,-60.5427 -49.0797,-109.6223 -109.6223,-109.6223 -60.5426,0 -109.6223,49.0796 -109.6223,109.6223 0,60.5426 49.0797,109.6223 109.6223,109.6223" /><path
           id="path22"
           style="fill:#3f4096;fill-opacity:1;fill-rule:evenodd;stroke:none"
           d="m 189.7115,385.736 c 48.767,0 88.3003,-39.5334 88.3003,-88.3003 0,-48.767 -39.5333,-88.3004 -88.3003,-88.3004 -48.767,0 -88.3004,39.5334 -88.3004,88.3004 0,48.7669 39.5334,88.3003 88.3004,88.3003 z m 0,-3.3295 c 46.9281,0 84.9708,-38.0427 84.9708,-84.9708 0,-46.9281 -38.0427,-84.9708 -84.9708,-84.9708 -46.9281,0 -84.9708,38.0427 -84.9708,84.9708 0,46.9281 38.0427,84.9708 84.9708,84.9708" /><text
           id="text26"
           style="font-variant:normal;font-weight:bold;font-size:19.76151466px;font-family:Cambria;-inkscape-font-specification:Cambria-Bold;writing-mode:lr-tb;fill:#3f4096;fill-opacity:1;fill-rule:nonzero;stroke:none"
           transform="matrix(0.9996,0.0274,0.0274,-0.9996,183.6179,389.2388)"><tspan
             id="tspan24"
             y="0"
             x="0">I</tspan></text>
<text
           id="text30"
           style="font-variant:normal;font-weight:bold;font-size:19.76291847px;font-family:Cambria;-inkscape-font-specification:Cambria-Bold;writing-mode:lr-tb;fill:#3f4096;fill-opacity:1;fill-rule:nonzero;stroke:none"
           transform="matrix(0.9972,-0.0754,-0.0754,-0.9972,190.5279,389.4367)"><tspan
             id="tspan28"
             y="0"
             x="0">Z</tspan></text>
<text
           id="text34"
           style="font-variant:normal;font-weight:bold;font-size:19.76235008px;font-family:Cambria;-inkscape-font-specification:Cambria-Bold;writing-mode:lr-tb;fill:#3f4096;fill-opacity:1;fill-rule:nonzero;stroke:none"
           transform="matrix(0.9744,-0.2249,-0.2249,-0.9744,201.7196,389.0412)"><tspan
             id="tspan32"
             y="0"
             x="0">M</tspan></text>
<text
           id="text38"
           style="font-variant:normal;font-weight:bold;font-size:19.76259422px;font-family:Cambria;-inkscape-font-specification:Cambria-Bold;writing-mode:lr-tb;fill:#3f4096;fill-opacity:1;fill-rule:nonzero;stroke:none"
           transform="matrix(0.9923,0.1241,0.1241,-0.9923,170.5419,387.6579)"><tspan
             id="tspan36"
             y="0"
             x="0">R</tspan></text>
<text
           id="text42"
           style="font-variant:normal;font-weight:bold;font-size:19.76157188px;font-family:Cambria;-inkscape-font-specification:Cambria-Bold;writing-mode:lr-tb;fill:#3f4096;fill-opacity:1;fill-rule:nonzero;stroke:none"
           transform="matrix(0.9479,-0.3185,-0.3185,-0.9479,217.8485,384.8913)"><tspan
             id="tspan40"
             y="0"
             x="0">	</tspan></text>
<text
           id="text46"
           style="font-variant:normal;font-weight:bold;font-size:19.76117134px;font-family:Cambria;-inkscape-font-specification:Cambria-Bold;writing-mode:lr-tb;fill:#3f4096;fill-opacity:1;fill-rule:nonzero;stroke:none"
           transform="matrix(0.9618,0.2736,0.2736,-0.9618,157.769,383.9031)"><tspan
             id="tspan44"
             y="0"
             x="0">U</tspan></text>
<text
           id="text50"
           style="font-variant:normal;font-weight:bold;font-size:19.76136971px;font-family:Cambria;-inkscape-font-specification:Cambria-Bold;writing-mode:lr-tb;fill:#3f4096;fill-opacity:1;fill-rule:nonzero;stroke:none"
           transform="matrix(0.8902,-0.4555,-0.4555,-0.8902,222.1994,384.1007)"><tspan
             id="tspan48"
             y="0"
             x="0">M</tspan></text>
<text
           id="text54"
           style="font-variant:normal;font-weight:bold;font-size:19.76154137px;font-family:Cambria;-inkscape-font-specification:Cambria-Bold;writing-mode:lr-tb;fill:#3f4096;fill-opacity:1;fill-rule:nonzero;stroke:none"
           transform="matrix(0.9117,0.4108,0.4108,-0.9117,146.126,378.5675)"><tspan
             id="tspan52"
             y="0"
             x="0">T</tspan></text>
<text
           id="text58"
           style="font-variant:normal;font-weight:bold;font-size:19.76272392px;font-family:Cambria;-inkscape-font-specification:Cambria-Bold;writing-mode:lr-tb;fill:#3f4096;fill-opacity:1;fill-rule:nonzero;stroke:none"
           transform="matrix(0.8652,0.5015,0.5015,-0.8652,142.5657,376.3936)"><tspan
             id="tspan56"
             y="0"
             x="0">	</tspan></text>
<text
           id="text62"
           style="font-variant:normal;font-weight:bold;font-size:19.7621994px;font-family:Cambria;-inkscape-font-specification:Cambria-Bold;writing-mode:lr-tb;fill:#3f4096;fill-opacity:1;fill-rule:nonzero;stroke:none"
           transform="matrix(0.8147,-0.5799,-0.5799,-0.8147,237.1428,376.3936)"><tspan
             id="tspan60"
             y="0"
             x="0">A</tspan></text>
<text
           id="text66"
           style="font-variant:normal;font-weight:bold;font-size:19.76203918px;font-family:Cambria;-inkscape-font-specification:Cambria-Bold;writing-mode:lr-tb;fill:#3f4096;fill-opacity:1;fill-rule:nonzero;stroke:none"
           transform="matrix(0.8119,0.5838,0.5838,-0.8119,132.1081,369.0816)"><tspan
             id="tspan64"
             y="0"
             x="0">T</tspan></text>
<text
           id="text70"
           style="font-variant:normal;font-weight:bold;font-size:19.76283646px;font-family:Cambria;-inkscape-font-specification:Cambria-Bold;writing-mode:lr-tb;fill:#3f4096;fill-opacity:1;fill-rule:nonzero;stroke:none"
           transform="matrix(0.7232,-0.6907,-0.6907,-0.7232,247.8504,369.0816)"><tspan
             id="tspan68"
             y="0"
             x="0">R</tspan></text>
<text
           id="text74"
           style="font-variant:normal;font-weight:bold;font-size:19.76185989px;font-family:Cambria;-inkscape-font-specification:Cambria-Bold;writing-mode:lr-tb;fill:#3f4096;fill-opacity:1;fill-rule:nonzero;stroke:none"
           transform="matrix(0.7216,0.6923,0.6923,-0.7216,123.7819,361.5721)"><tspan
             id="tspan72"
             y="0"
             x="0">A</tspan></text>
<text
           id="text78"
           style="font-variant:normal;font-weight:bold;font-size:19.76196098px;font-family:Cambria;-inkscape-font-specification:Cambria-Bold;writing-mode:lr-tb;fill:#3f4096;fill-opacity:1;fill-rule:nonzero;stroke:none"
           transform="matrix(0.6158,-0.7879,-0.7879,-0.6158,257.3691,359.9912)"><tspan
             id="tspan76"
             y="0"
             x="0">K</tspan></text>
<text
           id="text82"
           style="font-variant:normal;font-weight:bold;font-size:19.76255417px;font-family:Cambria;-inkscape-font-specification:Cambria-Bold;writing-mode:lr-tb;fill:#3f4096;fill-opacity:1;fill-rule:nonzero;stroke:none"
           transform="matrix(0.5001,-0.866,-0.866,-0.5001,265.7021,349.5172)"><tspan
             id="tspan80"
             y="0"
             x="0">A</tspan></text>
<text
           id="text86"
           style="font-variant:normal;font-weight:bold;font-size:19.7612133px;font-family:Cambria;-inkscape-font-specification:Cambria-Bold;writing-mode:lr-tb;fill:#3f4096;fill-opacity:1;fill-rule:nonzero;stroke:none"
           transform="matrix(0.6142,0.7891,0.7891,-0.6142,113.1863,348.7269)"><tspan
             id="tspan84"
             y="0"
             x="0">M</tspan></text>
<text
           id="text90"
           style="font-variant:normal;font-weight:bold;font-size:19.76107597px;font-family:Cambria;-inkscape-font-specification:Cambria-Bold;writing-mode:lr-tb;fill:#3f4096;fill-opacity:1;fill-rule:nonzero;stroke:none"
           transform="matrix(0.3631,-0.9317,-0.9317,-0.3631,272.4574,338.4505)"><tspan
             id="tspan88"
             y="0"
             x="0">Z</tspan></text>
<text
           id="text94"
           style="font-variant:normal;font-weight:bold;font-size:19.76161766px;font-family:Cambria;-inkscape-font-specification:Cambria-Bold;writing-mode:lr-tb;fill:#3f4096;fill-opacity:1;fill-rule:nonzero;stroke:none"
           transform="matrix(0.4967,0.8679,0.8679,-0.4967,104.7643,334.103)"><tspan
             id="tspan92"
             y="0"
             x="0">M</tspan></text>
<text
           id="text98"
           style="font-variant:normal;font-weight:bold;font-size:19.76205254px;font-family:Cambria;-inkscape-font-specification:Cambria-Bold;writing-mode:lr-tb;fill:#3f4096;fill-opacity:1;fill-rule:nonzero;stroke:none"
           transform="matrix(0.272,-0.9623,-0.9623,-0.272,276.5347,327.9767)"><tspan
             id="tspan96"
             y="0"
             x="0">I</tspan></text>
<text
           id="text102"
           style="font-variant:normal;font-weight:bold;font-size:19.76142693px;font-family:Cambria;-inkscape-font-specification:Cambria-Bold;writing-mode:lr-tb;fill:#3f4096;fill-opacity:1;fill-rule:nonzero;stroke:none"
           transform="matrix(0.3232,0.9463,0.9463,-0.3232,100.6869,321.2575)"><tspan
             id="tspan100"
             y="0"
             x="0">U</tspan></text>
<path
           id="path104"
           style="fill:#3f4096;fill-opacity:1;fill-rule:nonzero;stroke:none"
           d="m 115.8415,241.522 -0.4351,-0.3265 c -0.1908,0.1318 -0.3311,0.2205 -0.4261,0.2619 -0.0941,0.0459 -0.1939,0.066 -0.2982,0.0689 -0.1026,5e-4 -0.233,-0.0374 -0.3861,-0.1103 -0.1556,-0.0746 -0.369,-0.2171 -0.6466,-0.4255 l -7.3587,-5.5244 -1.2594,1.6775 2.9058,6.8307 c 0.3954,0.9246 0.7205,1.6273 0.9754,2.1146 l -0.0457,0.061 c -0.913,-0.756 -1.8946,-1.5288 -2.9477,-2.3191 l -2.1283,-1.5979 c -0.3291,-0.2469 -0.5493,-0.4368 -0.6565,-0.5669 -0.1077,-0.1335 -0.1655,-0.2721 -0.1783,-0.4155 -0.0144,-0.1449 0.0383,-0.3558 0.1545,-0.6424 l -0.4351,-0.3265 -1.8754,2.4981 0.4351,0.3266 c 0.1687,-0.1307 0.3124,-0.2237 0.4377,-0.2778 0.123,-0.0556 0.2477,-0.0714 0.3733,-0.051 0.1242,0.0227 0.2588,0.0779 0.4062,0.1675 0.1457,0.0882 0.3243,0.2118 0.5295,0.3657 l 5.715,4.2905 c 0.3293,0.2472 0.5468,0.432 0.6511,0.5559 0.1043,0.1241 0.1638,0.2605 0.1797,0.4133 0.0159,0.1527 -0.0343,0.3693 -0.1468,0.6514 l 0.4348,0.3265 2.0092,-2.6762 -2.3071,-5.3881 c -0.1449,-0.3376 -0.3478,-0.786 -0.6106,-1.3464 -0.2591,-0.561 -0.5176,-1.0761 -0.7679,-1.546 l 0.0796,-0.1058 c 1.0148,0.836 2.1461,1.7241 3.3928,2.6601 l 1.2288,0.9224 c 0.2863,0.2151 0.4831,0.3804 0.5947,0.4991 0.1132,0.1168 0.1846,0.2234 0.2143,0.3198 0.0318,0.0944 0.0409,0.1998 0.0261,0.3084 -0.0124,0.1105 -0.0618,0.2747 -0.1428,0.4958 l 0.4348,0.3265 z m 0.8529,-12.7403 -2.4868,2.501 -0.7467,-0.3606 c -0.2111,-0.0992 -0.407,-0.2063 -0.5887,-0.3152 -0.1797,-0.1114 -0.3535,-0.2486 -0.5173,-0.4113 -0.3819,-0.3798 -0.387,-0.7863 -0.01,-1.222 l -0.3858,-0.3835 -2.4865,2.5007 0.3855,0.3835 c 0.1593,-0.1278 0.3367,-0.2021 0.5318,-0.2267 0.1953,-0.0244 0.4087,-0.007 0.6463,0.0501 0.2392,0.0593 0.5465,0.1738 0.9258,0.3481 l 8.9359,4.0272 1.5545,-1.563 -4.6389,-8.4569 c -0.2063,-0.3762 -0.3427,-0.6551 -0.4087,-0.8362 -0.0647,-0.1795 -0.089,-0.3546 -0.0715,-0.5241 0.0176,-0.1696 0.0924,-0.3572 0.2237,-0.561 l -0.3858,-0.3835 -3.2162,3.2346 0.3855,0.3835 c 0.2268,-0.1797 0.432,-0.2741 0.6194,-0.2826 0.1874,-0.009 0.3631,0.0706 0.5269,0.2336 0.12,0.1193 0.2418,0.2684 0.364,0.4413 0.1199,0.1755 0.2645,0.4059 0.4266,0.6948 l 0.4167,0.7282 z m -1.5783,2.9591 2.0951,-2.107 2.3661,4.2131 z m 22.064,-11.2881 c -0.2823,0.115 -0.4918,0.1683 -0.6347,0.1553 -0.1411,-0.0108 -0.2789,-0.0669 -0.4115,-0.167 -0.1321,-0.104 -0.328,-0.316 -0.5828,-0.6395 l -4.4235,-5.6128 c -0.2075,-0.2637 -0.358,-0.4822 -0.4521,-0.656 -0.0958,-0.1757 -0.1333,-0.3328 -0.1163,-0.4753 0.0151,-0.1449 0.1231,-0.3447 0.3167,-0.605 l -0.3368,-0.4271 -3.3281,2.6226 0.3367,0.4272 c 0.2322,-0.0967 0.4,-0.1574 0.5046,-0.1749 0.1029,-0.0202 0.2004,-0.0145 0.2908,0.0184 0.091,0.0289 0.197,0.0995 0.3161,0.214 0.1193,0.1105 0.2962,0.3121 0.5284,0.6066 l 2.5055,3.1796 c 0.2758,0.3501 0.6086,0.7586 0.9933,1.224 0.3883,0.4655 0.6684,0.7937 0.8373,0.9805 l -0.1375,0.108 c -0.1871,-0.1323 -0.375,-0.2573 -0.5652,-0.3801 -0.1905,-0.119 -0.5329,-0.3299 -1.0293,-0.6318 l -5.4303,-3.3154 -1.1426,0.9003 2.3173,6.7022 c 0.127,0.3846 0.2656,0.756 0.4158,1.1151 l -0.1176,0.0927 c -0.5176,-0.7477 -1.1602,-1.6092 -1.9278,-2.5835 l -2.3522,-2.9846 c -0.2515,-0.3189 -0.4142,-0.553 -0.4808,-0.7013 -0.0686,-0.1508 -0.091,-0.3021 -0.0649,-0.4555 0.0264,-0.1533 0.1295,-0.3458 0.3101,-0.5817 l -0.3367,-0.4271 -2.4534,1.9335 0.3364,0.4272 c 0.1968,-0.0831 0.3595,-0.1361 0.4947,-0.1562 0.1329,-0.0221 0.2596,-0.007 0.3744,0.0425 0.1165,0.0479 0.2311,0.1335 0.3484,0.2602 0.1174,0.1262 0.2563,0.2931 0.4184,0.4992 l 4.4235,5.6129 c 0.2582,0.3277 0.4229,0.5644 0.4884,0.7064 0.0672,0.1445 0.0904,0.2877 0.0694,0.4297 -0.0209,0.142 -0.1247,0.3427 -0.3126,0.6055 l 0.3367,0.4272 3.2261,-2.5424 -2.4006,-6.7403 6.1427,3.7914 3.0424,-2.3976 z m 4.8073,-11.2924 -3.0713,1.7334 -0.6211,-0.5497 c -0.1766,-0.1525 -0.3359,-0.3087 -0.4813,-0.4629 -0.1429,-0.1556 -0.273,-0.3347 -0.3864,-0.536 -0.2647,-0.4691 -0.1596,-0.8617 0.3217,-1.1789 l -0.2673,-0.4737 -3.0713,1.7334 0.2673,0.4737 c 0.1879,-0.08 0.3787,-0.1035 0.5732,-0.0743 0.1947,0.0295 0.3954,0.104 0.6083,0.2234 0.2143,0.1219 0.4793,0.3155 0.7968,0.5859 l 7.5104,6.2986 1.9199,-1.0837 -2.1733,-9.3974 c -0.0967,-0.4181 -0.1525,-0.7234 -0.167,-0.9159 -0.0133,-0.1899 0.0105,-0.3651 0.0731,-0.5236 0.063,-0.1584 0.186,-0.3189 0.3674,-0.4796 l -0.2673,-0.4737 -3.9725,2.242 0.2673,0.4736 c 0.2671,-0.1117 0.4902,-0.1468 0.673,-0.1043 0.1825,0.0425 0.3302,0.1667 0.4436,0.3677 0.0834,0.1474 0.1602,0.324 0.2308,0.5238 0.068,0.201 0.1445,0.4623 0.2222,0.7844 z m -2.321,2.4205 2.5877,-1.4604 1.1356,4.6967 z m 22.2885,-2.8083 -0.2009,-0.5054 c -0.2316,0.013 -0.3975,0.0156 -0.5001,0.001 -0.1043,-0.01 -0.1998,-0.0448 -0.2905,-0.0967 -0.0876,-0.053 -0.1792,-0.1533 -0.2719,-0.2953 -0.0938,-0.1446 -0.2018,-0.3779 -0.3299,-0.6999 l -3.401,-8.5504 -1.9491,0.7752 -1.0806,7.344 c -0.1443,0.9953 -0.2327,1.7646 -0.2693,2.3131 l -0.0709,0.0284 c -0.3852,-1.1211 -0.8203,-2.2921 -1.307,-3.5156 l -0.9836,-2.4726 c -0.152,-0.3827 -0.2413,-0.6596 -0.2648,-0.826 -0.0221,-0.1704 6e-4,-0.3189 0.0646,-0.4476 0.063,-0.1313 0.2177,-0.2838 0.4663,-0.4677 l -0.2009,-0.5057 -2.9027,1.1545 0.2012,0.5054 c 0.2121,-0.0235 0.3833,-0.0278 0.5185,-0.009 0.1338,0.0168 0.2483,0.0681 0.3453,0.1511 0.0938,0.0839 0.18,0.2013 0.259,0.3546 0.0783,0.1511 0.1664,0.3498 0.2614,0.5882 l 2.6413,6.6405 c 0.152,0.3824 0.2415,0.6534 0.2659,0.8135 0.0244,0.1602 0.004,0.3079 -0.0623,0.4465 -0.0661,0.1383 -0.2214,0.2973 -0.4646,0.479 l 0.2009,0.5054 3.1094,-1.2367 0.8393,-5.8008 c 0.0524,-0.3637 0.1128,-0.8521 0.1808,-1.4675 0.0712,-0.6137 0.1188,-1.188 0.1503,-1.7195 l 0.123,-0.0488 c 0.4306,1.2424 0.9332,2.59 1.5094,4.0385 l 0.5678,1.4278 c 0.1324,0.3325 0.214,0.5763 0.2475,0.7359 0.0354,0.1588 0.0411,0.2869 0.0162,0.3847 -0.0222,0.0969 -0.0692,0.1916 -0.1387,0.2766 -0.068,0.0879 -0.1956,0.2024 -0.3801,0.3487 l 0.201,0.5054 2.8998,-1.1534 z m 12.0668,-2.9954 -0.5275,-2.2853 -1.1015,0.2543 c -0.0199,0.4791 -0.08,0.8572 -0.1829,1.1387 -0.1003,0.2803 -0.2616,0.5088 -0.4838,0.6871 -0.222,0.1789 -0.5296,0.3135 -0.9196,0.4034 -0.5326,0.123 -1.04,0.0694 -1.5214,-0.161 -0.4841,-0.2296 -0.9252,-0.6747 -1.3254,-1.3317 -0.4,-0.6543 -0.726,-1.5279 -0.9769,-2.6156 -0.2168,-0.9394 -0.3257,-1.7736 -0.3254,-2.4999 -0.002,-0.7259 0.1162,-1.3144 0.3521,-1.7713 0.2389,-0.457 0.5961,-0.739 1.074,-0.8493 0.4697,-0.1085 0.851,-0.049 1.1415,0.1817 0.29,0.2285 0.5066,0.6531 0.6486,1.2685 l 0.0709,0.3073 c 0.0938,0.4065 0.1502,0.7004 0.1633,0.8824 0.0124,0.1797 0.001,0.3181 -0.0363,0.4193 -0.0355,0.098 -0.0936,0.1837 -0.1715,0.2596 -0.0788,0.0732 -0.2262,0.1738 -0.4411,0.2957 l 0.123,0.5329 4.1202,-0.951 -0.1228,-0.5327 c -0.2874,-0.0178 -0.4898,-0.0666 -0.6094,-0.1459 -0.1196,-0.0794 -0.2174,-0.2016 -0.2917,-0.3609 -0.0748,-0.1624 -0.146,-0.3946 -0.2171,-0.7024 l -0.6996,-3.0325 -1.2152,0.0258 -0.4128,0.7058 c -0.7307,-0.2452 -1.5066,-0.2716 -2.3331,-0.0805 -1.5659,0.3611 -2.6303,1.0899 -3.1882,2.1821 -0.5581,1.0922 -0.6233,2.5654 -0.1947,4.4226 0.2251,0.9751 0.561,1.8031 1.0032,2.4792 0.4461,0.6783 0.964,1.1925 1.5573,1.5443 0.5933,0.3521 1.2181,0.5638 1.8737,0.6353 0.6588,0.0708 1.3374,0.0272 2.035,-0.1338 1.1758,-0.2716 2.2195,-0.6628 3.1351,-1.1722 z m 9.5888,-8.6184 -3.5172,0.2619 -0.328,-0.7614 c -0.095,-0.2132 -0.1729,-0.4223 -0.2387,-0.6239 -0.0632,-0.2015 -0.1046,-0.4192 -0.1216,-0.6494 -0.04,-0.5372 0.2222,-0.8479 0.7929,-0.9301 l -0.0406,-0.5425 -3.5169,0.2619 0.0402,0.5426 c 0.2041,0.007 0.387,0.0674 0.5505,0.1766 0.1636,0.1094 0.3135,0.2625 0.4555,0.4609 0.1421,0.2015 0.2994,0.4895 0.4717,0.8694 l 4.1168,8.8954 2.1985,-0.1639 2.0316,-9.4291 c 0.0905,-0.4193 0.1698,-0.7195 0.2384,-0.8998 0.0689,-0.1777 0.1653,-0.3259 0.2892,-0.4427 0.1244,-0.1168 0.3038,-0.2095 0.5366,-0.2775 l -0.0406,-0.5426 -4.5487,0.3387 0.0402,0.5426 c 0.2891,0.0125 0.506,0.0754 0.6534,0.1916 0.1471,0.1162 0.2279,0.2914 0.2452,0.5216 0.0125,0.1689 0.007,0.3614 -0.0139,0.5723 -0.0241,0.2109 -0.066,0.4796 -0.1327,0.8042 z m -3.1303,1.203 2.963,-0.2205 -0.9705,4.7335 z m 21.1153,7.0248 0.0414,-0.5425 c -0.2138,-0.0899 -0.364,-0.1605 -0.4499,-0.218 -0.0893,-0.055 -0.1602,-0.1281 -0.2186,-0.2146 -0.0555,-0.0862 -0.0938,-0.2166 -0.1148,-0.3847 -0.0207,-0.1712 -0.0156,-0.428 0.0108,-0.7738 l 0.699,-9.1752 -2.0917,-0.1593 -4.1952,6.1237 c -0.567,0.8308 -0.9842,1.4831 -1.2578,1.9599 l -0.0759,-0.006 c 0.146,-1.1764 0.2693,-2.4197 0.369,-3.7324 l 0.2022,-2.6535 c 0.0314,-0.4105 0.0728,-0.6985 0.125,-0.8586 0.0547,-0.1627 0.1403,-0.286 0.2545,-0.3736 0.1142,-0.0902 0.32,-0.1593 0.6245,-0.2155 l 0.0411,-0.5425 -3.1147,-0.2373 -0.0414,0.5426 c 0.201,0.0717 0.3569,0.1431 0.4697,0.2197 0.1131,0.0737 0.1936,0.1703 0.2441,0.2871 0.0473,0.1168 0.0734,0.2602 0.0771,0.4326 0.004,0.1701 -0.004,0.3872 -0.0236,0.6432 l -0.5428,7.1257 c -0.0312,0.4105 -0.0697,0.6931 -0.1182,0.8478 -0.0485,0.1545 -0.1315,0.2781 -0.252,0.3736 -0.1202,0.0956 -0.3297,0.1698 -0.6279,0.2265 l -0.0414,0.5426 3.3367,0.254 3.3012,-4.8433 c 0.2067,-0.3036 0.4754,-0.716 0.8068,-1.239 0.3336,-0.5202 0.6284,-1.0151 0.89,-1.4789 l 0.1321,0.0102 c -0.1587,1.3054 -0.2987,2.7369 -0.4172,4.2911 l -0.1168,1.5322 c -0.0272,0.3568 -0.0607,0.6117 -0.1009,0.7698 -0.0377,0.1579 -0.089,0.2759 -0.1542,0.3527 -0.0627,0.0774 -0.1466,0.1417 -0.2461,0.1876 -0.0998,0.0491 -0.2645,0.0958 -0.4946,0.1463 l -0.0414,0.5425 3.1119,0.237 z m 10.2282,-6.7413 c 0.2815,-0.6064 0.6163,-1.0296 1.0023,-1.2734 0.3856,-0.2406 0.8833,-0.2908 1.4905,-0.1508 0.3155,0.0732 0.5868,0.1905 0.8147,0.3561 0.2273,0.1681 0.3906,0.388 0.4873,0.659 0.0986,0.2747 0.1063,0.5919 0.0232,0.9516 -0.0765,0.3325 -0.2064,0.6063 -0.3864,0.8221 -0.18,0.216 -0.4311,0.4013 -0.7543,0.5609 -0.3254,0.1562 -0.7611,0.3016 -1.3039,0.4337 -0.4688,0.1148 -0.8955,0.245 -1.2881,0.3915 -0.3897,0.1474 -0.7353,0.328 -1.0343,0.5457 -0.3011,0.2137 -0.5562,0.4674 -0.7625,0.7582 -0.2039,0.2946 -0.3527,0.639 -0.4459,1.0429 -0.1523,0.6593 -0.1194,1.2572 0.1009,1.7941 0.2205,0.5368 0.6142,0.9983 1.1775,1.3799 0.5664,0.3792 1.2555,0.6658 2.071,0.854 0.4782,0.1103 0.94,0.1908 1.3858,0.2387 0.4454,0.0508 0.9638,0.0749 1.5509,0.0746 l 0.5388,-2.3352 -1.1015,-0.254 c -0.1998,0.4022 -0.409,0.707 -0.6233,0.9207 -0.2169,0.2132 -0.4573,0.3515 -0.7206,0.4153 -0.2633,0.0638 -0.5735,0.053 -0.9335,-0.0301 -0.3047,-0.0703 -0.5674,-0.1859 -0.7846,-0.3489 -0.2163,-0.1658 -0.3688,-0.3688 -0.4603,-0.6129 -0.0885,-0.2429 -0.1009,-0.5147 -0.0312,-0.8169 0.0717,-0.3104 0.1942,-0.5658 0.3676,-0.7659 0.1735,-0.2002 0.4284,-0.3756 0.7611,-0.5276 0.3357,-0.1511 0.8057,-0.3058 1.4106,-0.4583 0.7412,-0.1905 1.3388,-0.4088 1.7909,-0.6514 0.4552,-0.2424 0.8184,-0.5375 1.0865,-0.8836 0.2685,-0.3489 0.4638,-0.7812 0.5822,-1.2949 0.1523,-0.6593 0.1336,-1.2682 -0.062,-1.8252 -0.1934,-0.5542 -0.5519,-1.0301 -1.0769,-1.4261 -0.5247,-0.3963 -1.1707,-0.6812 -1.9372,-0.858 -0.5494,-0.1267 -1.1248,-0.2279 -1.7331,-0.3016 -0.6072,-0.0763 -1.1829,-0.114 -1.732,-0.1163 l -0.5717,2.4778 z m 20.0532,5.8082 c 0.1516,-0.3946 0.2743,-0.6585 0.3628,-0.7937 0.0898,-0.1316 0.2058,-0.2291 0.3461,-0.2869 0.1397,-0.0578 0.358,-0.0675 0.6582,-0.0306 l 0.1953,-0.5077 -4.0229,-1.5483 -0.1956,0.5077 c 0.267,0.1936 0.4297,0.3435 0.487,0.4535 0.0595,0.1134 0.0782,0.2444 0.0606,0.4009 -0.0207,0.155 -0.1128,0.449 -0.2809,0.8858 l -1.1897,3.0914 -3.4835,-1.3407 1.19,-3.0915 c 0.0689,-0.1789 0.1381,-0.3427 0.2084,-0.4938 0.07,-0.1514 0.1372,-0.2704 0.206,-0.3558 0.0692,-0.085 0.1452,-0.1493 0.2282,-0.193 0.0871,-0.0448 0.1911,-0.0714 0.3116,-0.0794 0.1218,-0.0104 0.2644,-0.004 0.426,0.0159 l 0.1956,-0.5077 -4.0467,-1.5573 -0.1954,0.5077 c 0.1718,0.1264 0.3005,0.2395 0.3887,0.3398 0.0873,0.1032 0.1375,0.216 0.1494,0.3416 0.0147,0.1267 -0.003,0.2738 -0.0485,0.4405 -0.0471,0.1692 -0.1182,0.3773 -0.2123,0.6219 l -2.558,6.6461 c -0.093,0.2421 -0.1786,0.4414 -0.2548,0.5996 -0.0743,0.1618 -0.1591,0.2803 -0.2549,0.3642 -0.0921,0.0825 -0.2049,0.1324 -0.341,0.1559 -0.1346,0.0204 -0.3095,0.0196 -0.5269,-0.004 l -0.1954,0.5077 4.0465,1.5574 0.1953,-0.5077 c -0.2409,-0.1831 -0.3951,-0.3396 -0.4598,-0.47 -0.0643,-0.1307 -0.0878,-0.2815 -0.0723,-0.4476 0.0193,-0.1678 0.1035,-0.4496 0.2554,-0.8441 l 0.9916,-2.5759 3.4832,1.3405 -0.9913,2.5759 c -0.1499,0.3894 -0.2698,0.6542 -0.3628,0.7937 -0.093,0.1394 -0.2052,0.2352 -0.3427,0.2939 -0.1363,0.0564 -0.3583,0.0678 -0.665,0.0403 l -0.1953,0.5077 4.0229,1.5482 0.1953,-0.5076 c -0.2018,-0.1503 -0.3424,-0.2798 -0.4187,-0.3878 -0.0762,-0.108 -0.1153,-0.2257 -0.1162,-0.3495 -0.003,-0.1253 0.017,-0.2566 0.0556,-0.3958 0.0385,-0.1391 0.1097,-0.3475 0.216,-0.6236 l 2.5549,-6.6381 z m 9.8413,6.7765 -3.0339,-1.7983 0.1666,-0.8125 c 0.0442,-0.229 0.1001,-0.445 0.1616,-0.648 0.0635,-0.2015 0.1542,-0.4033 0.2718,-0.6023 0.2747,-0.4632 0.6676,-0.5678 1.1827,-0.3087 l 0.2772,-0.468 -3.0339,-1.7983 -0.2773,0.468 c 0.163,0.123 0.2784,0.2767 0.3501,0.4601 0.0715,0.1834 0.1069,0.3943 0.1097,0.6386 0.001,0.2466 -0.0346,0.5726 -0.1108,0.9828 l -1.7155,9.6505 1.8963,1.124 7.0628,-6.569 c 0.3144,-0.2923 0.5511,-0.493 0.7107,-0.6013 0.1579,-0.1066 0.322,-0.1729 0.4904,-0.1975 0.1689,-0.0247 0.369,0.002 0.5989,0.0793 l 0.2773,-0.468 -3.924,-2.3258 -0.2773,0.468 c 0.2299,0.1757 0.3717,0.3512 0.4258,0.5312 0.0541,0.1792 0.0204,0.3691 -0.0972,0.5678 -0.0865,0.1457 -0.2013,0.3005 -0.3391,0.4612 -0.1405,0.1593 -0.3288,0.3557 -0.5691,0.5836 z m -3.2556,-0.8054 2.556,1.5152 -3.5051,3.3261 z m 19.0672,10.497 c 0.2617,-0.3322 0.4567,-0.5479 0.5811,-0.6508 0.1248,-0.0992 0.2645,-0.1582 0.4156,-0.1718 0.1508,-0.0142 0.3623,0.0414 0.6378,0.165 l 0.3367,-0.4272 -3.3857,-2.668 -0.3367,0.4272 c 0.1978,0.2636 0.309,0.4552 0.3311,0.5771 0.0232,0.1259 0.002,0.2566 -0.0607,0.4009 -0.0655,0.1423 -0.2401,0.3957 -0.5298,0.763 l -2.0503,2.602 -2.9316,-2.3103 2.0503,-2.6016 c 0.1185,-0.1505 0.233,-0.2866 0.345,-0.4105 0.1117,-0.1238 0.2109,-0.2177 0.3019,-0.2786 0.0913,-0.061 0.1831,-0.0998 0.2752,-0.1171 0.0964,-0.0173 0.2036,-0.0119 0.3212,0.0162 0.1193,0.0261 0.2537,0.0745 0.4022,0.1411 l 0.3368,-0.4271 -3.4056,-2.6839 -0.3367,0.4272 c 0.127,0.1718 0.2166,0.3178 0.2707,0.4397 0.053,0.1244 0.0675,0.2469 0.042,0.3704 -0.0233,0.1253 -0.0834,0.2608 -0.1766,0.4065 -0.0947,0.1477 -0.2246,0.3254 -0.3867,0.5315 l -4.4079,5.5931 c -0.1604,0.2038 -0.301,0.369 -0.4203,0.4977 -0.1191,0.1324 -0.235,0.2206 -0.3513,0.2724 -0.1125,0.0516 -0.2349,0.0661 -0.3719,0.0482 -0.1346,-0.0204 -0.3013,-0.0728 -0.5023,-0.1593 l -0.3367,0.4272 3.4055,2.6838 0.3365,-0.4274 c -0.1757,-0.2461 -0.2769,-0.4411 -0.3002,-0.5848 -0.023,-0.1437 -8e-4,-0.2948 0.0632,-0.449 0.0681,-0.1548 0.2319,-0.3989 0.4935,-0.7308 l 1.7085,-2.1679 2.9316,2.3102 -1.7085,2.1677 c -0.2582,0.3276 -0.451,0.5454 -0.5814,0.6511 -0.1298,0.1057 -0.2653,0.1641 -0.4138,0.1797 -0.1471,0.0133 -0.3626,-0.0414 -0.6475,-0.1582 l -0.3367,0.4272 3.3857,2.668 0.3367,-0.4272 c -0.1482,-0.2032 -0.2443,-0.3685 -0.2854,-0.4941 -0.0408,-0.1258 -0.0434,-0.2497 -0.007,-0.3682 0.0338,-0.1208 0.0919,-0.2401 0.1698,-0.3617 0.078,-0.1216 0.2075,-0.2996 0.3906,-0.5321 l 4.4025,-5.5865 z m 7.5612,9.5119 -2.5079,-2.4794 0.3586,-0.7478 c 0.0984,-0.2117 0.205,-0.4076 0.3135,-0.5896 0.1106,-0.18 0.2472,-0.3543 0.4099,-0.5185 0.3785,-0.3829 0.7849,-0.3894 1.222,-0.0133 l 0.3824,-0.3866 -2.5081,-2.4798 -0.3823,0.387 c 0.1284,0.1587 0.2032,0.3359 0.2281,0.5309 0.025,0.1953 0.008,0.4087 -0.0481,0.6463 -0.0584,0.2395 -0.1724,0.5471 -0.3456,0.9269 l -4.0019,8.9473 1.5675,1.55 8.4439,-4.6627 c 0.3756,-0.2072 0.6539,-0.3447 0.835,-0.4113 0.1789,-0.065 0.3544,-0.0896 0.5239,-0.0729 0.1695,0.017 0.3574,0.0916 0.5615,0.2222 l 0.3824,-0.3869 -3.2437,-3.2071 -0.3824,0.3869 c 0.1806,0.2262 0.2756,0.4309 0.2846,0.6185 0.009,0.1871 -0.0697,0.3632 -0.2321,0.5276 -0.1191,0.1202 -0.2679,0.2426 -0.4405,0.3651 -0.1749,0.1204 -0.4054,0.2656 -0.6937,0.4286 z m -2.9634,-1.5698 2.113,2.0892 -4.2064,2.3779 z m 13.6004,9.7093 -2.5532,-3.5045 -0.4397,0.3203 c 0.0755,0.1996 0.1222,0.3642 0.1418,0.4963 0.0173,0.1341 -0.002,0.256 -0.0598,0.3683 -0.0564,0.1142 -0.1511,0.2284 -0.2801,0.3435 -0.131,0.1165 -0.3041,0.2526 -0.5159,0.4071 l -5.7557,4.1933 c -0.2098,0.1525 -0.3898,0.2735 -0.5395,0.3651 -0.1502,0.0955 -0.2857,0.1491 -0.4119,0.1675 -0.1221,0.0193 -0.244,0 -0.3707,-0.0541 -0.1245,-0.0562 -0.2707,-0.1514 -0.4408,-0.2892 l -0.4397,0.3203 2.8352,3.8917 c 0.3836,0.5264 0.7453,0.9465 1.0854,1.26 0.3425,0.3121 0.6883,0.5522 1.0395,0.7183 0.2945,0.1412 0.5947,0.2225 0.9,0.2444 0.3053,0.0215 0.616,-0.0165 0.9298,-0.1126 0.3152,-0.0935 0.6409,-0.2644 0.9734,-0.5068 0.4351,-0.3169 0.7546,-0.6684 0.9533,-1.0468 0.1992,-0.3824 0.3081,-0.779 0.326,-1.1897 0.0161,-0.4091 -0.0423,-0.9006 -0.1769,-1.4687 l 0.0663,-0.0482 c 0.3824,0.2234 0.771,0.3592 1.1662,0.3992 0.3946,0.0439 0.8404,0.019 1.3311,-0.0735 l 1.2124,-0.2412 c 0.5417,-0.1088 0.9808,-0.1426 1.3178,-0.106 0.3376,0.0368 0.62,0.1661 0.8516,0.3878 l 0.4396,-0.3203 -1.8726,-2.5702 c -0.5445,-9e-4 -1.2883,0.0944 -2.2257,0.282 l -1.5217,0.3101 c -0.4524,0.0922 -0.7894,0.1324 -1.0128,0.1273 -0.2225,-0.008 -0.405,-0.0536 -0.5445,-0.1301 -0.1389,-0.0802 -0.2988,-0.2424 -0.4762,-0.4861 l -0.2824,-0.3875 2.151,-1.567 c 0.3325,-0.2424 0.5788,-0.3977 0.7324,-0.464 0.1579,-0.0661 0.3099,-0.0825 0.4544,-0.0519 0.1443,0.0306 0.3345,0.1434 0.5729,0.3362 z m -8.8416,5.339 3.7097,-2.7025 0.4813,0.6607 c 0.2589,0.3552 0.4252,0.684 0.5012,0.9848 0.0717,0.2999 0.0717,0.5825 -8e-4,0.8413 -0.0715,0.2611 -0.2061,0.5023 -0.4,0.72 -0.1939,0.2219 -0.4286,0.4311 -0.7047,0.6321 -0.6058,0.4414 -1.1622,0.6304 -1.6727,0.5664 -0.5108,-0.0638 -0.9698,-0.3782 -1.3782,-0.9386 -0.2787,-0.3829 -0.457,-0.6369 -0.5358,-0.7642" /><g
           id="g106"><g
             id="g108"><path
               id="path110"
               style="fill:#3f4096;fill-opacity:1;fill-rule:evenodd;stroke:none"
               d="m 101.1489,258.8502 1.109,-3.4353 3.6099,0.007 -2.9245,-2.1164 1.1219,-3.431 -2.9163,2.1277 -2.9162,-2.1277 1.1219,3.431 -2.9245,2.1164 3.6099,-0.007 z" /><path
               id="path112"
               style="fill:#3f4096;fill-opacity:1;fill-rule:evenodd;stroke:none"
               d="m 96.4706,268.9648 1.109,-3.4353 3.6099,0.007 -2.9245,-2.1161 1.1219,-3.431 -2.9163,2.1274 -2.9162,-2.1274 1.1219,3.431 -2.9245,2.1161 3.6099,-0.007 z" /><path
               id="path114"
               style="fill:#3f4096;fill-opacity:1;fill-rule:evenodd;stroke:none"
               d="m 92.4378,279.9108 1.1089,-3.4353 3.6099,0.007 -2.9245,-2.1161 1.122,-3.4311 -2.9163,2.1275 -2.9163,-2.1275 1.122,3.4311 -2.9245,2.1161 3.6099,-0.007 z" /></g><g
             id="g116"><path
               id="path118"
               style="fill:#3f4096;fill-opacity:1;fill-rule:evenodd;stroke:none"
               d="m 278.6434,258.8502 -1.1089,-3.4353 -3.6096,0.007 2.9245,-2.1164 -1.1223,-3.431 2.9163,2.1274 2.9166,-2.1274 -1.1223,3.431 2.9245,2.1164 -3.6099,-0.007 z" /><path
               id="path120"
               style="fill:#3f4096;fill-opacity:1;fill-rule:evenodd;stroke:none"
               d="m 283.322,268.9645 -1.1089,-3.4353 -3.61,0.007 2.9246,-2.1164 -1.1223,-3.4307 2.9166,2.1274 2.9163,-2.1274 -1.1223,3.4307 2.9245,2.1164 -3.6099,-0.007 z" /><path
               id="path122"
               style="fill:#3f4096;fill-opacity:1;fill-rule:evenodd;stroke:none"
               d="m 287.3546,279.9108 -1.109,-3.4353 -3.6096,0.007 2.9245,-2.1161 -1.1222,-3.4311 2.9163,2.1275 2.9165,-2.1275 -1.1222,3.4311 2.9245,2.1161 -3.6099,-0.007 z" /></g></g><path
           id="path124"
           style="fill:#ffffff;fill-opacity:1;fill-rule:evenodd;stroke:none"
           d="M 83.5478,318.6737 H 293.3062 V 280.3068 H 83.5478 Z" /><text
           id="text128"
           style="font-variant:normal;font-weight:bold;font-size:45.3730011px;font-family:Cambria;-inkscape-font-specification:Cambria-Bold;writing-mode:lr-tb;fill:#ee3338;fill-opacity:1;fill-rule:nonzero;stroke:none"
           transform="matrix(1,0,0,-1,85.926,284.4675)"><tspan
             id="tspan126"
             y="0"
             x="0 41.280701 90.267097 139.2532 175.7697">UMMAT</tspan></text>
</g><g
         id="g130"><text
           id="text134"
           style="font-variant:normal;font-weight:bold;font-size:92.59600067px;font-family:Cambria;-inkscape-font-specification:Cambria-Bold;writing-mode:lr-tb;fill:#ee3338;fill-opacity:1;fill-rule:nonzero;stroke:none"
           transform="matrix(1,0,0,-1,355.0368,291.6255)"><tspan
             id="tspan132"
             y="0"
             x="0 84.244003 184.21339 284.18311 358.70419">UMMAT</tspan></text>
<text
           id="text138"
           style="font-variant:normal;font-weight:bold;font-size:45.35300064px;font-family:Cambria;-inkscape-font-specification:Cambria-Bold;writing-mode:lr-tb;fill:#3f4096;fill-opacity:1;fill-rule:nonzero;stroke:none"
           transform="matrix(1,0,0,-1,422.026,241.3655)"><tspan
             id="tspan136"
             y="0"
             x="0 28.980568 59.004253 85.438499 114.1923 140.40634 165.39584 175.3735 204.35406 220.22762 258.59625">TRAVEL	TIME</tspan></text>
</g><path
         id="path140"
         style="fill:#3f4096;fill-opacity:1;fill-rule:evenodd;stroke:none"
         d="m 325.6415,386.8092 h 4.7832 V 208.0621 h -4.7832 z" /></g></g></svg>